<svg id="Layer_1" data-name="Layer 1" xmlns="http://www.w3.org/2000/svg" width="156.7" height="43.5" viewBox="0 0 156.7 43.5">
  <defs>
    <style>
      .cls-1 {
        fill: #013366;
      }

      .cls-2 {
        fill: #fdb913;
      }

      .cls-3 {
        fill: #fff;
      }

      .cls-4 {
        fill: #4c81af;
      }

      .cls-5 {
        fill: none;
      }
    </style>
  </defs>
  <title>17_gov3_bc_logo</title>
  <rect class="cls-1" width="156.7" height="43.5"/>
  <rect class="cls-2" x="76.2" y="41.4" width="68.5" height="0.83"/>
  <path class="cls-3" d="M8.6,35.1c9.7,0,23.2,5.5,33,5.5,7,0,13.8-1.9,17.7-4.6A29.6,29.6,0,1,0,.8,36,48.4,48.4,0,0,1,8.6,35.1Z" transform="translate(1 0.7)"/>
  <polygon class="cls-2" points="50.1 24.9 51.3 25.4 53.9 23.6 50.1 24.9"/>
  <path class="cls-2" d="M5.5,22.2,2.4,21.1l.2-.4L6,21.9H6l.5-.3h.2L2.9,19.9l.2-.4,8.4,3.4h.3L3.4,18.7l.2-.4,8.9,4.1h.1L4,17.5l.2-.4,12.4,6.8.4-.7a110.7,110.7,0,0,0-9.3-7.8,110.3,110.3,0,0,0,10.5,6l.5-.7L8.2,11.5l.3-.3L17,18.5,9.1,10.6l.3-.3,8.9,8.6L10,9.7l.3-.3L18,17.6,11,8.8l.3-.3,9,10.9.7-.5A110.1,110.1,0,0,0,15.3,8.2a110.3,110.3,0,0,0,7.4,9.5l.8-.4h0L17.1,4.8l.4-.2,5.2,10L18.3,4.2l.4-.2,5,11.3L19.5,3.7h.4l4,10.5L20.7,3.3h.4l4.2,13.4h0l.9-.2A110.2,110.2,0,0,0,24.9,4.3a110.4,110.4,0,0,0,3.3,11.5H29l-1.1-14h.4L29.4,13,29.2,1.8h.4L30,14.2l.4-12.4H31L30.8,13l1-11.2h.4l-1.1,14H32A110.5,110.5,0,0,0,35.3,4.4,111.1,111.1,0,0,0,34,16.3l.8.3L39,3.2h.4L36.2,14.1l4-10.5h.4L36.4,15.4l5-11.3.4.2L37.5,14.6l5.2-10,.4.2L36.8,17.3h0l.8.4A110.6,110.6,0,0,0,45,8.3a111.1,111.1,0,0,0-5.6,10.6l.7.6L48.8,8.6l.3.3-7,8.8,7.7-8.2.3.3L41.8,19l8.9-8.6.3.3-7.9,7.9,8.5-7.3.3.3L41.5,20.8h0l.5.6a110.5,110.5,0,0,0,10.4-6,110.6,110.6,0,0,0-9.2,7.7l.5.8,12.2-6.7.2.4-9.8,5.5,10.2-4.7.2.4-9.5,4.6h.2L57,19.6l.2.4-9,3.8h.2l6-2,.9-.6.3.2,2-.6.2.4-1.7.6,2.4,1.9.8.4a30,30,0,0,0-58.5.7h0l.4-.2h.2Z" transform="translate(1 0.7)"/>
  <path class="cls-4" d="M.5,36.6a49.3,49.3,0,0,1,8.1-.9c9.7,0,23.2,5.5,33,5.5,7.2,0,14.2-2,18-4.8a30.2,30.2,0,0,0-.4-12.2l-4.1-2.3-4.8,3.3L47.1,24c-1.1.5-7.8,5-7.8,5l-2.6-1.9L34,26.6l-3.7-2.7-4.2,2.9-4.9,2.7c-.2,0-5.7-4.4-5.7-4.4L13,22.5l-2.2,1.1h-.1L9,23.1,7,22,.8,24.8H.7A30.2,30.2,0,0,0,.5,36.6Z" transform="translate(1 0.7)"/>
  <path class="cls-3" d="M99.3,20.5h-.6a.7.7,0,0,0,0,.9h4.8a.6.6,0,0,0,.2-.5.5.5,0,0,0-.2-.4h-.6c-.8,0-.8-.2-.8-1.8V13.1c0-1.6,0-2,.8-2h.5c.2,0,.3,0,.3-.3s-.2-.4-.4-.4H98.7a.6.6,0,0,0-.2.5.2.2,0,0,0,.2.2h.6c.8,0,.8.3.8,1.8v5.7C100.1,20.4,100.1,20.4,99.3,20.5Zm-11.9,0h-.7a.8.8,0,0,0,0,.9h5.2a.7.7,0,0,0,0-.9H91c-.7,0-.7-.3-.7-1V16.3h.2c1.2,0,1.2,0,1.7,1l2,3.5h0a1,1,0,0,0,.9.6h2.4a.7.7,0,0,0,.1-.9h-.8c-.4-.1-.5-.3-.8-.7h0l-1.6-2.7L93.8,16a3,3,0,0,0,2.5-2.8c0-2.1-2.1-2.8-3.9-2.8H86.7v.2h0c0,.2,0,.5.2.6h.6c.9.1.9.1.9,1v7.1h0C88.2,20.4,88.1,20.5,87.4,20.5Zm2.9-9.1h1.2c1.2,0,2.4.6,2.4,1.9a1.7,1.7,0,0,1-.7,1.5,3.6,3.6,0,0,1-1.9.5h-1Zm63.6,24.2h-.4c-.4-.1-.5-.6-.7-1.1v-.2L149.3,26s-.2-.6-.5-.6-.6.5-.7.7l-3.4,8.5c-.2.5-.4,1-.8,1H143a.8.8,0,0,0-.1.9h3.9a.8.8,0,0,0,0-.9h-.7c-.5,0-.5-.1-.5-.3a1.9,1.9,0,0,1,.2-.5l.5-1.3s.2-.6.5-.6h2.7c.5,0,.6.7.6.7l.4,1.1.3.7c0,.1-.1.3-.7.3h-.9a.8.8,0,0,0,0,.9H154c.3,0,.3-.2.3-.6a.3.3,0,0,0-.3-.3Zm-4.7-4h-2.4l1.2-3.2,1.3,3.2Zm-45-18.9h0a.6.6,0,0,0,.5.3s.3.1.4-.1a6.5,6.5,0,0,1,.6-1.1,2.2,2.2,0,0,1,1.7-.5h1.1v8.2c0,.7,0,1-.6,1H107a.7.7,0,0,0,0,.9h5a.6.6,0,0,0,.2-.5.5.5,0,0,0-.2-.4h-.7c-.7,0-.7-.3-.7-1.5h0V11.3H112a1.7,1.7,0,0,1,1.5.6,1.2,1.2,0,0,1,.3.9h1a8.1,8.1,0,0,1,.2-2.2h0v-.4h-.9c-.2.3-.2.3-1,.3h-6.3c-.8,0-1,0-1.1-.3h-.9a12.4,12.4,0,0,1-.6,2.1h0A1.7,1.7,0,0,0,104.2,12.7Zm18.3,8.5h.1a7.1,7.1,0,0,0,2.9.5h.2c2.6,0,4.3-1.4,4.3-3.3s-.8-2.5-2.6-3.4l-1.5-.8c-.7-.4-1.5-1-1.5-1.7s.7-1.5,2-1.5h.3a2.1,2.1,0,0,1,2,1.6h1.1v-.2a6.3,6.3,0,0,0-.4-2.1h-.9l-1.8-.2h0c-2.9.1-4.2,1.6-4.1,3.2a3.7,3.7,0,0,0,2.3,3l1.8,1c1.3.7,1.4,1.4,1.4,2s-.6,1.6-2.1,1.6H126a3,3,0,0,1-2.9-2.1.5.5,0,0,0-.4-.3h-.7a6.4,6.4,0,0,0,.5,2.3Zm-6-.6h-.4a.6.6,0,0,0,0,.8h4.8a.6.6,0,0,0,.2-.5.5.5,0,0,0-.2-.4h-.6c-.8-.1-.8-.1-.8-1.7V13.2c0-1.7,0-2,.8-2h.5c.2-.1.4-.1.3-.4a.4.4,0,0,0-.4-.4h-4.6a.6.6,0,0,0-.2.5c0,.2.1.2.2.3h.6c.8,0,.8.1.8,1.8v5.6c-.1,1.8-.1,1.8-.9,1.9Zm14.8-9.3h.6c.6,0,.7.1.7,1.8v6.1c0,1.2-.1,1.3-.7,1.3h-.6a.7.7,0,0,0,0,.9h4.6a.6.6,0,0,0,.2-.5.5.5,0,0,0-.2-.4h-.5c-.5,0-.7-.2-.7-1.7V16.6a1.1,1.1,0,0,1,0-.2h5.8c0,.1,0,2.8,0,2.8s0,1.3-.7,1.3h-.5a.7.7,0,0,0,0,.9h4.5a.6.6,0,0,0,.2-.5.5.5,0,0,0-.2-.4h-.6c-.7,0-.7-.1-.7-1.6V13c0-1.6,0-1.6.7-1.7h.4a.4.4,0,0,0,.3-.5.4.4,0,0,0-.4-.4h-4.3a.5.5,0,0,0-.2.4.7.7,0,0,0,.2.5h.4c.8,0,.8.1.8,1.7,0,0,0,2,0,2.1h-5.8c0-.1,0-2,0-2,0-1.6,0-1.8.6-1.8h.5c.3,0,.3-.2.3-.5s0-.4-.4-.4h-4.3a.5.5,0,0,0-.2.4A.7.7,0,0,0,131.3,11.3Zm10.2,15h.5a.4.4,0,0,0,.3-.4.5.5,0,0,0-.5-.4h-4.7a.7.7,0,0,0-.2.6.4.4,0,0,0,.2.3h.6c.8,0,.8.1.8,1.9v5.7c0,1.6,0,1.6-.8,1.7h-.6a.8.8,0,0,0,0,.9H142a.6.6,0,0,0,.2-.5.5.5,0,0,0-.2-.4h-.6c-.8-.1-.8-.1-.8-1.7V28.2c0-1.7,0-1.9.6-1.9ZM99.1,33.8h-.8a2.9,2.9,0,0,1-1.1,1.5,5.3,5.3,0,0,1-1.7.2h-.2a2.9,2.9,0,0,1-1.6-.3c-.2-.2-.4-.4-.4-1.4V28.1c0-1.6.2-1.7,1-1.7h.5c.2,0,.3-.1.3-.5a.4.4,0,0,0-.4-.4H89.8a.6.6,0,0,0-.2.5.5.5,0,0,0,.2.4h.6c.9,0,.9.1.9,1.8v5.8c0,1.6,0,1.7-.8,1.7h-.7a.8.8,0,0,0,0,.9h8.8a12.3,12.3,0,0,0,.8-2.3A.4.4,0,0,0,99.1,33.8ZM88.3,26.9a6.2,6.2,0,0,0-4.6-1.8h-.3a5.8,5.8,0,0,0-5.8,6c0,2.9,2,5.7,6.1,5.7h.2a5.9,5.9,0,0,0,6-5.8h0A5.8,5.8,0,0,0,88.3,26.9Zm-4.4,8.9c-1.6,0-4.2-1.2-4.2-5.3s2.2-4.4,3.7-4.4,4.3,2.1,4.3,4.9v.5c-.1,2.2-1.2,4.3-3.8,4.3Zm41.8-.2h-.6l-.6-.2a.5.5,0,0,1-.2-.4h0V27.3a2.4,2.4,0,0,1,.1-.8c.1-.2,1.1-.2,1.1-.2s.2-.1.2-.2.1-.5-.1-.7h-2.6c-.5,0-.6.3-.7.6l-3.5,7.4-3-7.4c-.1-.4-.3-.6-.6-.6H112l-.3.2c0,.3-.1.5.2.7h1c.2,0,.3.2.3.7l-.2,7.6c-.1.8-.2,1-.8,1h-.8a.8.8,0,0,0,.1.9h4.2a.8.8,0,0,0,0-.9h-.8a.7.7,0,0,1-.6-.3,2.7,2.7,0,0,1-.1-1.4V27.6l3.4,8.4h0a.5.5,0,0,0,.5.3h.4l3.9-8.5v6.8a4.2,4.2,0,0,1,0,.5h0a.5.5,0,0,1-.2.4l-.6.2h-.8a.8.8,0,0,0,0,.9h5A.8.8,0,0,0,125.7,35.6Zm-15-10.2h-4.2a.6.6,0,0,0-.1.8h1.3c.2.3.2,3.5.2,5.2s-1.6,4-3.1,4-3-1.2-3-4V27.7c0-1.3,0-1.4.7-1.4h.6c.2-.1.3-.2.2-.5s-.1-.4-.3-.4H98.4a.6.6,0,0,0-.2.5.5.5,0,0,0,.2.4h.7c.7,0,.7,0,.7,1.6v3.9a5,5,0,0,0,1.6,4,5.3,5.3,0,0,0,3,1h.3a5.5,5.5,0,0,0,3.5-1.3c1-1.1,1.1-2.1,1.1-4.1a49,49,0,0,1,.2-4.9.8.8,0,0,1,.5-.2h.7c.2-.1.2-.2.2-.5A.4.4,0,0,0,110.7,25.4ZM75.9,9.7c.6,0,.7.1.7,1.5v7.2c0,1.9,0,1.9-.9,2.1h-.6a.6.6,0,0,0-.1.8h5.2c3.7,0,5.8-1.5,5.8-4.1A3.4,3.4,0,0,0,83.1,14a2.8,2.8,0,0,0,1.8-2.6,2.8,2.8,0,0,0-1.5-2.3,9,9,0,0,0-3.1-.6h-.5l-4.5.2A.4.4,0,0,0,75,9a.7.7,0,0,0,.2.7ZM83.7,18c0,1.9-1.6,2.3-3,2.3h-.2a1.8,1.8,0,0,1-1.2-.4,3.3,3.3,0,0,1-.4-1.8V15.3h.9C83.2,15.1,83.7,17,83.7,18ZM78.9,9.8h1c1.3,0,2.8.6,2.8,2.2s-.5,2-3,2.1h-.8V10A.5.5,0,0,1,78.9,9.8ZM76.6,32.9h-.5a3.8,3.8,0,0,1-3.6,2.6h-.2c-3.3,0-5.5-2.5-5.5-6.1A5.3,5.3,0,0,1,72,23.8c2.5,0,3.3.9,3.7,2.6h1.2a22.2,22.2,0,0,1-.3-2.8v-.3h-.7a15.3,15.3,0,0,0-3.5-.5H72a8.8,8.8,0,0,0-5.2,1.7A6.8,6.8,0,0,0,64.3,30a6.5,6.5,0,0,0,2.9,5.6A8.8,8.8,0,0,0,71.9,37h.3a11.7,11.7,0,0,0,3.2-.5l.6-.2h.2a7.5,7.5,0,0,0,1-2.8h0A.7.7,0,0,0,76.6,32.9Zm57.7-2.6a2.4,2.4,0,0,0-.1-4.5,8.8,8.8,0,0,0-3-.4h-4.3l-.3.2a.7.7,0,0,0,.1.7h.8c.6,0,.6.1.6,1.3v6.3c0,1.6,0,1.6-.7,1.7h-.5a.6.6,0,0,0-.2.4,1,1,0,0,0,.2.5h4.7c4.2,0,5.2-.9,5.2-3.6a3.1,3.1,0,0,0-2.6-2.6Zm-4.1-4h.9c1.2,0,2.6.5,2.6,1.9s-.6,1.8-2.8,1.8h-.7V26.3Zm.4,9c-.3-.2-.5-1-.5-1.5V31.1h1c2.8,0,3.4,1.4,3.4,2.6s-1.5,1.9-2.8,1.9A2.7,2.7,0,0,1,130.6,35.3Z" transform="translate(1 0.7)"/>
  <rect class="cls-5" x="116.9" y="36.6" width="0.6" height="0.62"/>
</svg>
